<?xml version="1.0" encoding="UTF-8" standalone="no"?>
<!DOCTYPE svg PUBLIC "-//W3C//DTD SVG 1.1//EN"
 "http://www.w3.org/Graphics/SVG/1.1/DTD/svg11.dtd">
<!-- Generated by graphviz version 2.40.1 (20161225.0304)
 -->
<!-- Title: G Pages: 1 -->
<svg width="495pt" height="260pt"
 viewBox="0.00 0.00 494.54 260.00" xmlns="http://www.w3.org/2000/svg" xmlns:xlink="http://www.w3.org/1999/xlink">
<g id="graph0" class="graph" transform="scale(1 1) rotate(0) translate(4 256)">
<title>G</title>
<polygon fill="#ffffff" stroke="transparent" points="-4,4 -4,-256 490.5392,-256 490.5392,4 -4,4"/>
<!-- n1 -->
<g id="node1" class="node">
<title>n1</title>
<ellipse fill="none" stroke="#000000" cx="361.5438" cy="-234" rx="53.8905" ry="18"/>
<text text-anchor="middle" x="361.5438" y="-230.3" font-family="Times,serif" font-size="14.00" fill="#000000">Head Office</text>
</g>
<!-- n2 -->
<g id="node2" class="node">
<title>n2</title>
<ellipse fill="none" stroke="#000000" cx="307.5438" cy="-162" rx="53.8905" ry="18"/>
<text text-anchor="middle" x="307.5438" y="-158.3" font-family="Times,serif" font-size="14.00" fill="#000000">Novosibirsk</text>
</g>
<!-- n2&#45;&gt;n1 -->
<g id="edge1" class="edge">
<title>n2&#45;&gt;n1</title>
<path fill="none" stroke="#000000" d="M320.8921,-179.7978C326.9737,-187.9064 334.3091,-197.6871 341.0652,-206.6951"/>
<polygon fill="#000000" stroke="#000000" points="341.149,-206.807 347.949,-209.2069 348.3491,-216.407 341.549,-214.007 341.149,-206.807"/>
</g>
<!-- n3 -->
<g id="node3" class="node">
<title>n3</title>
<ellipse fill="none" stroke="#000000" cx="415.5438" cy="-162" rx="35.9954" ry="18"/>
<text text-anchor="middle" x="415.5438" y="-158.3" font-family="Times,serif" font-size="14.00" fill="#000000">Berdsk</text>
</g>
<!-- n3&#45;&gt;n1 -->
<g id="edge2" class="edge">
<title>n3&#45;&gt;n1</title>
<path fill="none" stroke="#000000" d="M402.7466,-179.063C396.5625,-187.3085 388.9887,-197.4068 382.0292,-206.6862"/>
<polygon fill="#000000" stroke="#000000" points="382.0132,-206.7076 381.6132,-213.9076 374.8131,-216.3076 375.2132,-209.1076 382.0132,-206.7076"/>
</g>
<!-- n4 -->
<g id="node4" class="node">
<title>n4</title>
<ellipse fill="none" stroke="#000000" cx="189.5438" cy="-90" rx="42.7926" ry="18"/>
<text text-anchor="middle" x="189.5438" y="-86.3" font-family="Times,serif" font-size="14.00" fill="#000000">Sovetsky</text>
</g>
<!-- n4&#45;&gt;n2 -->
<g id="edge3" class="edge">
<title>n4&#45;&gt;n2</title>
<path fill="none" stroke="#000000" d="M213.9935,-104.9184C230.4712,-114.9727 252.5003,-128.4141 271.0424,-139.7279"/>
<polygon fill="#000000" stroke="#000000" points="271.2448,-139.8514 278.4501,-139.562 281.4884,-146.1018 274.2831,-146.3911 271.2448,-139.8514"/>
</g>
<!-- n5 -->
<g id="node5" class="node">
<title>n5</title>
<ellipse fill="none" stroke="#000000" cx="307.5438" cy="-90" rx="57.3905" ry="18"/>
<text text-anchor="middle" x="307.5438" y="-86.3" font-family="Times,serif" font-size="14.00" fill="#000000">Pervomaisky</text>
</g>
<!-- n5&#45;&gt;n2 -->
<g id="edge4" class="edge">
<title>n5&#45;&gt;n2</title>
<path fill="none" stroke="#000000" d="M307.5438,-108.1686C307.5438,-115.1921 307.5438,-123.427 307.5438,-131.3139"/>
<polygon fill="#000000" stroke="#000000" points="307.5439,-131.5867 311.5439,-137.5868 307.5438,-143.5867 303.5439,-137.5867 307.5439,-131.5867"/>
</g>
<!-- n6 -->
<g id="node6" class="node">
<title>n6</title>
<ellipse fill="none" stroke="#000000" cx="434.5438" cy="-90" rx="51.9908" ry="18"/>
<text text-anchor="middle" x="434.5438" y="-86.3" font-family="Times,serif" font-size="14.00" fill="#000000">Oktyabrsky</text>
</g>
<!-- n6&#45;&gt;n2 -->
<g id="edge5" class="edge">
<title>n6&#45;&gt;n2</title>
<path fill="none" stroke="#000000" d="M407.2991,-105.4458C389.3423,-115.6261 365.5683,-129.1042 345.7337,-140.3491"/>
<polygon fill="#000000" stroke="#000000" points="345.6208,-140.413 342.374,-146.8519 335.1817,-146.3313 338.4285,-139.8925 345.6208,-140.413"/>
</g>
<!-- n7 -->
<g id="node7" class="node">
<title>n7</title>
<ellipse fill="none" stroke="#000000" cx="69.5438" cy="-18" rx="69.5877" ry="18"/>
<text text-anchor="middle" x="69.5438" y="-14.3" font-family="Times,serif" font-size="14.00" fill="#000000">Verhnyaya Zone</text>
</g>
<!-- n7&#45;&gt;n4 -->
<g id="edge6" class="edge">
<title>n7&#45;&gt;n4</title>
<path fill="none" stroke="#000000" d="M97.3759,-34.6992C114.3124,-44.8611 136.1039,-57.936 154.2453,-68.8209"/>
<polygon fill="#000000" stroke="#000000" points="154.4262,-68.9294 161.6292,-68.5864 164.7162,-75.1034 157.5132,-75.4464 154.4262,-68.9294"/>
</g>
<!-- n8 -->
<g id="node8" class="node">
<title>n8</title>
<ellipse fill="none" stroke="#000000" cx="189.5438" cy="-18" rx="32.4942" ry="18"/>
<text text-anchor="middle" x="189.5438" y="-14.3" font-family="Times,serif" font-size="14.00" fill="#000000">Schya</text>
</g>
<!-- n8&#45;&gt;n4 -->
<g id="edge7" class="edge">
<title>n8&#45;&gt;n4</title>
<path fill="none" stroke="#000000" d="M189.5438,-36.1686C189.5438,-43.1921 189.5438,-51.427 189.5438,-59.3139"/>
<polygon fill="#000000" stroke="#000000" points="189.5439,-59.5867 193.5439,-65.5868 189.5438,-71.5867 185.5439,-65.5867 189.5439,-59.5867"/>
</g>
<!-- n9 -->
<g id="node9" class="node">
<title>n9</title>
<ellipse fill="none" stroke="#000000" cx="275.5438" cy="-18" rx="35.194" ry="18"/>
<text text-anchor="middle" x="275.5438" y="-14.3" font-family="Times,serif" font-size="14.00" fill="#000000">Shlyuz</text>
</g>
<!-- n9&#45;&gt;n4 -->
<g id="edge8" class="edge">
<title>n9&#45;&gt;n4</title>
<path fill="none" stroke="#000000" d="M256.8831,-33.6229C245.6243,-43.0489 231.0462,-55.2539 218.3345,-65.8962"/>
<polygon fill="#000000" stroke="#000000" points="218.2647,-65.9546 216.2319,-72.8733 209.0636,-73.6579 211.0964,-66.7392 218.2647,-65.9546"/>
</g>
</g>
</svg>
